<?xml version="1.0" encoding="UTF-8" standalone="no"?>
<!-- Generator: Adobe Illustrator 16.0.0, SVG Export Plug-In . SVG Version: 6.00 Build 0)  -->

<svg
   version="1.1"
   id="grapes"
   x="0px"
   y="0px"
   width="312"
   height="312"
   viewBox="0 0 312 312"
   enable-background="new 0 0 243 311"
   xml:space="preserve"
   sodipodi:docname="icon.svg"
   inkscape:version="1.2.2 (b0a8486541, 2022-12-01)"
   inkscape:export-filename="48896-grape-vector.png"
   inkscape:export-xdpi="96"
   inkscape:export-ydpi="96"
   xmlns:inkscape="http://www.inkscape.org/namespaces/inkscape"
   xmlns:sodipodi="http://sodipodi.sourceforge.net/DTD/sodipodi-0.dtd"
   xmlns="http://www.w3.org/2000/svg"
   xmlns:svg="http://www.w3.org/2000/svg"><defs
   id="defs367"><linearGradient
   id="linearGradient2899"
   inkscape:swatch="solid"><stop
     style="stop-color:#0000ff;stop-opacity:1;"
     offset="0"
     id="stop2897" /></linearGradient><linearGradient
   id="linearGradient2230"
   inkscape:swatch="solid"><stop
     style="stop-color:#014463;stop-opacity:1;"
     offset="0"
     id="stop2228" /></linearGradient>
	
	
	
	
	
	
	
	
	
	
	
	
	
	
	
	
	
	
	
	
	
	
	
	
	
	
	
	
	
	
</defs><sodipodi:namedview
   id="namedview365"
   pagecolor="#ffffff"
   bordercolor="#000000"
   borderopacity="0.25"
   inkscape:showpageshadow="2"
   inkscape:pageopacity="0.0"
   inkscape:pagecheckerboard="0"
   inkscape:deskcolor="#d1d1d1"
   showgrid="false"
   inkscape:zoom="2.3311897"
   inkscape:cx="32.386897"
   inkscape:cy="156.7869"
   inkscape:window-width="1920"
   inkscape:window-height="1004"
   inkscape:window-x="0"
   inkscape:window-y="0"
   inkscape:window-maximized="1"
   inkscape:current-layer="grapes" />
<g
   id="g3422"
   style="display:inline"
   transform="translate(23.400468,-21.600498)"
   inkscape:label="7"><path
     fill="#ae89be"
     d="m 122,224.184 c 18.823,0 34.09,15.268 34.09,34.091 0,18.823 -15.267,34.09 -34.09,34.09 -18.826,0 -34.09,-15.267 -34.09,-34.09 0,-18.823 15.264,-34.091 34.09,-34.091"
     id="path3410"
     style="display:inline"
     inkscape:label="7-circle" /><path
     fill="#634682"
     d="m 142.454,231.002 c 4.088,5.453 6.818,12.957 6.818,20.454 0,19.089 -15.001,34.091 -34.091,34.091 -7.5,0 -15.001,-2.73 -20.454,-6.818 6.136,8.183 16.363,13.636 27.272,13.636 19.089,0 34.09,-15.001 34.09,-34.09 0.001,-10.907 -5.452,-21.134 -13.635,-27.273"
     id="path3412"
     style="display:inline"
     inkscape:label="7-b" /><path
     fill="#ebbefc"
     d="m 107.72746,254.2979 c 3.762,0 6.818,3.056 6.818,6.818 0,3.762 -3.056,6.817 -6.818,6.817 -3.762,0 -6.818,-3.056 -6.818,-6.817 0,-3.762 3.056,-6.818 6.818,-6.818"
     id="path3414"
     style="display:inline"
     inkscape:label="7-l" /><path
     fill="#634682"
     d="m 94.728,251.456 c 13.636,0 25.229,-5.453 34.091,-14.315 6.817,6.818 16.365,12.271 26.593,13.637 -3.409,-15.002 -17.045,-26.594 -33.411,-26.594 -16.363,0 -29.999,11.592 -33.408,26.594 2.043,0.678 4.091,0.678 6.135,0.678"
     id="path3416"
     style="display:inline"
     inkscape:label="7-t" /><circle
     style="opacity:1;fill:none;fill-opacity:1;stroke:#014463;stroke-width:4;stroke-dasharray:none;stroke-opacity:1;paint-order:normal"
     id="circle3420"
     cx="154.81053"
     cy="257.2475"
     r="35"
     inkscape:label="ring"
     transform="translate(-32)" /></g><g
   id="6"
   style="display:inline"
   transform="translate(76.000468,-85.300498)"><path
     fill="#ae89be"
     d="m 122,224.184 c 18.823,0 34.09,15.268 34.09,34.091 0,18.823 -15.267,34.09 -34.09,34.09 -18.826,0 -34.09,-15.267 -34.09,-34.09 0,-18.823 15.264,-34.091 34.09,-34.091"
     id="6-circle"
     style="display:inline" /><path
     fill="#634682"
     d="m 145.45353,232.5025 c 4.088,5.453 6.818,12.957 6.818,20.454 0,19.089 -15.001,34.091 -34.091,34.091 -7.5,0 -15.001,-2.73 -20.453998,-6.818 6.135998,8.183 16.362998,13.636 27.271998,13.636 19.089,0 34.09,-15.001 34.09,-34.09 0.001,-10.907 -5.452,-21.134 -13.635,-27.273"
     id="6-shadow"
     style="display:inline"
     inkscape:label="6-b" /><path
     id="6-t"
     style="display:inline;fill:#634682;fill-opacity:1"
     d="m 121.04428,220.4295 a 35.232983,32.579597 0 0 0 -20.10157,5.98047 34.312214,32.381031 0 0 0 -32.681637,32.27344 34.312214,32.381031 0 0 0 34.312497,32.38085 34.312214,32.381031 0 0 0 27.66797,-13.36523 c 0.3556,0.31499 0.71299,0.62788 1.08203,0.92969 4.77298,-7.49599 8.18164,-16.35828 8.18164,-25.90625 0,-2.73 4.6e-4,-6.13933 -0.68554,-8.86133 2.37792,-0.59397 4.6962,-1.42498 6.92578,-2.42969 2.93756,1.18951 6.00805,2.0636 9.14844,2.57422 A 35.232983,32.579597 0 0 0 121.04428,220.4295 Z" /><circle
     style="opacity:1;fill:none;fill-opacity:1;stroke:#014463;stroke-width:4;stroke-dasharray:none;stroke-opacity:1;paint-order:normal"
     id="circle3387"
     cx="154.81053"
     cy="257.2475"
     r="35"
     inkscape:label="ring"
     transform="translate(-32)" /></g><g
   id="5"
   style="display:inline"
   transform="translate(15.000468,-14.500498)"><path
     fill="#ae89be"
     d="m 156.09,162.821 c 18.823,0 34.091,15.268 34.091,34.091 0,18.822 -15.268,34.09 -34.091,34.09 -18.822,0 -34.09,-15.268 -34.09,-34.09 0,-18.823 15.268,-34.091 34.09,-34.091"
     id="5-circle"
     style="display:inline" /><path
     fill="#634682"
     d="m 176.544,169.64 c 4.089,5.453 6.818,12.957 6.818,20.454 0,19.089 -15.001,34.09 -34.09,34.09 -7.497,0 -15.001,-2.729 -20.454,-6.818 6.139,8.184 16.365,13.637 27.271,13.637 19.09,0 34.091,-15.001 34.091,-34.09 0.001,-10.907 -5.452,-21.135 -13.636,-27.273"
     id="5-shadow"
     style="display:inline"
     inkscape:label="5-b" /><path
     fill="#634682"
     d="m 189.495,189.414 c -3.409,-15.001 -17.046,-26.593 -33.405,-26.593 -19.089,0 -34.09,15.001 -34.09,34.091 0,10.906 4.773,19.774 12.271,25.906 4.773,-7.496 8.183,-16.358 8.183,-25.906 0,-2.73 0,-6.14 -0.686,-8.862 8.183,-2.044 15.687,-6.818 21.14,-12.271 6.819,6.818 16.36,12.271 26.587,13.635"
     id="5-t"
     style="display:inline" /><path
     fill="#ebbefc"
     d="m 159.991,189.54422 c 3.762,0 6.818,3.056 6.818,6.818 0,3.762 -3.056,6.817 -6.818,6.817 -3.762,0 -6.818,-3.056 -6.818,-6.817 0,-3.762 3.056,-6.818 6.818,-6.818"
     id="6-l"
     style="display:inline"
     inkscape:label="5-l" /><circle
     style="display:inline;opacity:1;fill:none;fill-opacity:1;stroke:#014463;stroke-width:4;stroke-dasharray:none;stroke-opacity:1;paint-order:normal"
     id="path2382"
     cx="156.81053"
     cy="197.2475"
     r="35"
     inkscape:label="ring" /></g><g
   id="4"
   style="display:inline"
   transform="translate(22.800468,-14.200498)"><path
     fill="#ae89be"
     d="m 87.91,162.821 c 18.826,0 34.09,15.268 34.09,34.091 0,18.822 -15.264,34.09 -34.09,34.09 -18.826,0 -34.09,-15.268 -34.09,-34.09 -10e-4,-18.823 15.263,-34.091 34.09,-34.091"
     id="4-circle"
     style="display:inline" /><path
     fill="#634682"
     d="m 108.364,169.64 c 4.091,5.453 6.818,12.957 6.818,20.454 0,19.089 -15.001,34.09 -34.09,34.09 -7.501,0 -15.001,-2.729 -20.454,-6.818 6.135,8.184 16.362,13.637 27.272,13.637 19.089,0 34.09,-15.001 34.09,-34.09 0,-10.907 -5.453,-21.135 -13.636,-27.273"
     id="4-shadow"
     inkscape:label="4-b" /><path
     fill="#634682"
     d="m 60.638,190.094 c 13.636,0 25.228,-5.453 34.09,-14.315 6.818,6.818 16.363,12.271 26.59,13.636 -3.409,-15.001 -17.045,-26.593 -33.408,-26.593 -16.363,0 -29.999,11.592 -33.408,26.593 2.044,0.679 4.091,0.679 6.136,0.679"
     id="4-t" /><path
     fill="#ebbefc"
     d="m 73.012444,191.7864 c 3.762,0 6.818,3.056 6.818,6.818 0,3.762 -3.056,6.817 -6.818,6.817 -3.762,0 -6.818,-3.056 -6.818,-6.817 0,-3.763 3.055,-6.818 6.818,-6.818"
     id="4-l"
     style="display:inline" /><circle
     style="display:inline;opacity:1;fill:none;fill-opacity:1;stroke:#014463;stroke-width:4;stroke-dasharray:none;stroke-opacity:1;paint-order:normal"
     id="circle3391"
     cx="86.810532"
     cy="197.2475"
     r="35"
     inkscape:label="ring" /></g><g
   id="1"
   style="display:inline"
   transform="translate(32.700296,-14.200319)"><path
     fill="#ae89be"
     d="m 53.819,101.458 c 18.826,0 34.09,15.267 34.09,34.09 0,18.827 -15.264,34.091 -34.09,34.091 -18.826,0 -34.09,-15.265 -34.09,-34.091 0,-18.822 15.264,-34.09 34.09,-34.09"
     id="1-circle"
     style="display:inline" /><path
     fill="#634682"
     d="m 74.273,108.276 c 4.092,5.453 6.818,12.954 6.818,20.454 0,19.089 -15.001,34.091 -34.09,34.091 -7.5,0 -15.001,-2.729 -20.455,-6.818 6.136,8.184 16.363,13.637 27.272,13.637 19.089,0 34.09,-15.002 34.09,-34.091 0.002,-10.91 -5.451,-21.137 -13.635,-27.273"
     id="1-shadow"
     style="display:inline"
     inkscape:label="1-b" /><path
     fill="#ebbefc"
     d="m 33.365,142.367 c -4.092,0 -6.818,-2.727 -6.818,-6.818 0,-15.001 12.271,-27.272 27.272,-27.272 4.092,0 6.818,2.727 6.818,6.818 0,4.092 -2.727,6.818 -6.818,6.818 -7.5,0 -13.636,6.136 -13.636,13.636 0,4.091 -2.726,6.818 -6.818,6.818"
     id="1-lt"
     style="display:inline" /><circle
     style="display:inline;opacity:1;fill:none;fill-opacity:1;stroke:#014463;stroke-width:4;stroke-dasharray:none;stroke-opacity:1;paint-order:normal"
     id="circle3394"
     cx="54.642704"
     cy="134.96132"
     r="35"
     inkscape:label="ring" /></g><g
   id="3"
   style="display:inline"
   transform="translate(23.29983,-23.299645)"><path
     fill="#ae89be"
     d="m 190.181,101.458 c 18.823,0 34.09,15.267 34.09,34.09 0,18.827 -15.267,34.091 -34.09,34.091 -18.823,0 -34.091,-15.265 -34.091,-34.091 0,-18.822 15.267,-34.09 34.091,-34.09"
     id="3-circle" /><path
     fill="#634682"
     d="m 210.635,108.276 c 4.088,5.453 6.818,12.954 6.818,20.454 0,19.089 -15.001,34.091 -34.091,34.091 -7.497,0 -15.001,-2.729 -20.454,-6.818 6.139,8.184 16.366,13.637 27.272,13.637 19.089,0 34.09,-15.002 34.09,-34.091 10e-4,-10.91 -5.453,-21.137 -13.635,-27.273"
     id="3-shadow"
     style="display:inline" /><path
     fill="#634682"
     d="m 156.09,135.548 c 0,11.592 6.14,22.499 15.001,28.638 3.409,-6.818 5.453,-13.637 5.453,-21.82 0,-11.592 -4.088,-21.819 -10.906,-30.681 -6.139,6.136 -9.548,15.002 -9.548,23.863"
     id="3-l" /><path
     fill="#ebbefc"
     d="m 183.362,108.276 c 3.762,0 6.818,3.056 6.818,6.818 0,3.766 -3.057,6.818 -6.818,6.818 -3.761,0 -6.818,-3.053 -6.818,-6.818 0,-3.761 3.057,-6.818 6.818,-6.818"
     id="3-lt"
     style="display:inline" /><circle
     style="display:inline;opacity:1;fill:none;fill-opacity:1;stroke:#014463;stroke-width:4;stroke-dasharray:none;stroke-opacity:1;paint-order:normal"
     id="circle3400"
     cx="189.42717"
     cy="135.14565"
     r="35"
     inkscape:label="ring" /></g><g
   id="root-leaf"
   transform="matrix(1.0986331,0,0,1.0986331,27.966753,0.7626917)"
   inkscape:label="leaf"><path
     fill="#90c962"
     d="m 122,60.55 c 0,-10.91 -4.092,-21.137 -11.592,-29.316 -8.18,-7.501 -18.407,-11.592 -29.316,-11.592 0,10.91 4.091,21.137 11.592,29.316 7.497,8.183 18.406,11.592 29.316,11.592"
     id="light-green"
     style="display:inline" /><path
     fill="#37960f"
     d="M 121.317,53.732 C 111.09,53.732 100.863,49.64 92.68,42.14 86.545,36.004 82.453,28.504 81.092,20.324 h -0.683 c 0,10.91 4.091,21.137 11.592,29.316 8.862,6.818 19.089,10.91 29.999,10.91 0,-2.044 0,-4.774 -0.683,-6.818"
     id="deep-green"
     style="display:inline" /><path
     id="root"
     style="display:inline;fill:#014463;fill-opacity:1;stroke-width:0.826297"
     d="m 122.0751,28.011811 c -2.13683,0.126253 -4.36796,0.06379 -6.38443,0.868256 -0.89297,0.432606 -1.13856,1.47121 -1.17557,2.375073 -1.92802,14.635531 4.88124,30.070934 17.04363,38.455871 6.8991,4.831467 15.28066,7.405717 23.68281,7.570345 1.05966,0.06032 1.97112,1.328124 1.62839,2.256177 -1.67297,4.82077 -2.83665,9.833182 -3.18896,14.931669 -0.14764,1.529724 -0.0722,3.067574 0.10488,4.591201 0.97674,0.492982 2.13935,0.947787 3.20996,0.448653 0.35661,-0.25016 0.9918,-0.392467 1.11596,-0.811849 0.22148,-2.20538 0.11135,-4.431299 0.44074,-6.62807 0.223,-1.910255 0.59347,-3.80204 1.07712,-5.663014 0.0838,-0.304997 0.24958,-0.936518 0.38439,-1.362127 2.67359,-9.025601 8.3946,-17.139813 16.10937,-22.55705 7.27614,-5.161305 16.19416,-7.928447 25.10995,-7.867418 1.15177,0.02971 2.17444,-0.992061 2.08673,-2.151724 -0.0475,-1.129775 -1.16108,-1.893921 -2.23521,-1.878085 -0.77012,-0.09216 -1.77102,-0.02339 -2.62726,-0.0093 -9.61256,0.329294 -19.09872,3.724846 -26.6904,9.640365 -2.75336,2.11641 -5.18547,4.60621 -7.77208,6.915804 -1.09229,-5.417307 -2.07608,-10.946133 -4.52696,-15.952069 -2.21473,-4.696789 -5.41983,-8.912058 -9.33517,-12.321306 C 142.6148,31.856414 132.37571,27.786917 122.0751,28.011815 Z m -3.86519,4.612413 c 4.47253,-0.01853 9.01145,0.09935 13.33469,1.366787 6.39752,1.742931 12.40912,5.081814 17.08037,9.809341 6.52415,7.179195 10.20223,16.871896 10.03742,26.575911 0.009,0.911625 0.0187,1.823252 0.028,2.734878 -2.43731,0.0125 -4.75782,-0.01995 -7.19458,-0.245307 -0.46621,-0.04892 -1.21272,-0.125354 -1.78137,-0.207415 -6.49045,-0.930128 -12.70082,-3.629042 -17.91327,-7.59142 -1.14311,-0.873863 -2.23394,-1.814778 -3.27382,-2.80907 -0.26786,-0.267695 -0.74971,-0.735623 -1.08623,-1.0947 -5.35246,-5.518121 -8.21159,-13.072497 -8.97123,-20.639098 -0.27937,-2.622873 -0.2187,-5.269348 -0.25995,-7.899907 z"
     transform="matrix(0.91022198,0,0,0.91022198,-25.455953,-8.5220886)"
     inkscape:label="branch" /></g><g
   id="2"
   style="display:inline"
   transform="translate(32,-17.999544)"><path
     fill="#ae89be"
     d="m 122,101.458 c 18.823,0 34.09,15.267 34.09,34.09 0,18.827 -15.267,34.091 -34.09,34.091 -18.826,0 -34.09,-15.265 -34.09,-34.091 0,-18.822 15.264,-34.09 34.09,-34.09"
     id="2-circle" /><path
     fill="#634682"
     d="m 142.454,108.276 c 4.088,5.453 6.818,12.954 6.818,20.454 0,19.089 -15.001,34.091 -34.091,34.091 -7.5,0 -15.001,-2.729 -20.454,-6.818 6.136,8.184 16.363,13.637 27.272,13.637 19.089,0 34.09,-15.002 34.09,-34.091 0.001,-10.91 -5.452,-21.137 -13.635,-27.273"
     id="2-shadow"
     inkscape:label="2-b" /><path
     fill="#ebbefc"
     d="m 101.99474,135.21366 c -3.410955,0 -5.683256,-2.26268 -5.683256,-5.65711 0,-12.44681 10.228696,-22.62845 22.733016,-22.62845 3.40762,0 5.68325,2.26268 5.68325,5.65711 0,3.39526 -2.27563,5.65712 -5.68325,5.65712 -6.25175,0 -11.3665,5.09123 -11.3665,11.31422 0,3.39443 -2.27314,5.65711 -5.68326,5.65711"
     id="2-lt"
     style="stroke-width:0.831647" /><circle
     style="display:inline;opacity:1;fill:none;fill-opacity:1;stroke:#014463;stroke-width:4;stroke-dasharray:none;stroke-opacity:1;paint-order:normal"
     id="circle3397"
     cx="121.53619"
     cy="134.69154"
     r="35"
     inkscape:label="ring" /></g>
</svg>
